<svg width="160" height="32" viewBox="0 0 160 32" fill="none" xmlns="http://www.w3.org/2000/svg">
  <g>
    <g transform="translate(0, 4)">
      <path d="M4 4H8V8H4V12H8V16H12V20H8V16H4V12H0V8H4V4Z" fill="currentColor" fill-rule="evenodd"/>
      
      <g transform="translate(8, 0)">
        <path d="M8 2C8 1.44772 8.44772 1 9 1H15C15.5523 1 16 1.44772 16 2V14C16 14.5523 15.5523 15 15 15H9C8.44772 15 8 14.5523 8 14V2Z" 
              stroke="currentColor" stroke-width="1.5" fill="none"/>
        
        <circle cx="10" cy="4" r="0.8" fill="currentColor"/>
        <circle cx="13" cy="6" r="0.8" fill="currentColor"/>
        <circle cx="11" cy="8" r="0.8" fill="currentColor"/>
        <circle cx="14" cy="10" r="0.8" fill="currentColor"/>
        <circle cx="10" cy="12" r="0.8" fill="currentColor"/>
        
        <line x1="10" y1="4" x2="13" y2="6" stroke="currentColor" stroke-width="0.5"/>
        <line x1="13" y1="6" x2="11" y2="8" stroke="currentColor" stroke-width="0.5"/>
        <line x1="11" y1="8" x2="14" y2="10" stroke="currentColor" stroke-width="0.5"/>
        <line x1="14" y1="10" x2="10" y2="12" stroke="currentColor" stroke-width="0.5"/>
        
        <path d="M9.5 6L10.5 7L12.5 5" stroke="currentColor" stroke-width="1" stroke-linecap="round" stroke-linejoin="round" fill="none"/>
      </g>
    </g>
    
    <text x="32" y="20" font-family="Inter, sans-serif" font-size="16" font-weight="700" fill="currentColor">JENAFREE</text>
    <text x="32" y="28" font-family="Inter, sans-serif" font-size="10" font-weight="400" fill="currentColor">LABS</text>
  </g>
</svg>