<svg width="32" height="32" viewBox="0 0 32 32" fill="none" xmlns="http://www.w3.org/2000/svg">
  <!-- Cruz + Cérebro minimalista -->
  <g transform="translate(4, 4)">
    <!-- Cruz -->
    <path d="M8 1L8 15M1 8L15 8" stroke="#001A4D" stroke-width="2" stroke-linecap="round" stroke-linejoin="round"/>
    
    <!-- Cérebro -->
    <g transform="translate(17, 1)">
      <path d="M4 2C4 2 6 1 9 1C12 1 14 2 14 5C14 8 12 9 9 9C6 9 4 8 4 5C4 2 4 2 4 2Z" stroke="#001A4D" stroke-width="1.5" fill="none"/>
      <circle cx="7" cy="4" r="0.8" fill="#001A4D"/>
      <circle cx="10" cy="5" r="0.8" fill="#001A4D"/>
      <circle cx="9" cy="7" r="0.8" fill="#001A4D"/>
      <path d="M6 4L7 5L8 4" stroke="#001A4D" stroke-width="1" stroke-linecap="round" stroke-linejoin="round"/>
    </g>
  </g>
</svg>

