<svg width="200" height="60" viewBox="0 0 200 60" fill="none" xmlns="http://www.w3.org/2000/svg">
  <!-- Cruz + Cérebro -->
  <g transform="translate(10, 10)">
    <!-- Cruz -->
    <path d="M12 2L12 22M2 12L22 12" stroke="currentColor" stroke-width="3" stroke-linecap="round" stroke-linejoin="round"/>
    
    <!-- Cérebro -->
    <g transform="translate(25, 0)">
      <path d="M8 4C8 4 10 2 15 2C20 2 22 4 22 8C22 12 20 14 15 14C10 14 8 12 8 8C8 4 8 4 8 4Z" stroke="currentColor" stroke-width="2" fill="none"/>
      <circle cx="12" cy="6" r="1" fill="currentColor"/>
      <circle cx="16" cy="8" r="1" fill="currentColor"/>
      <circle cx="14" cy="10" r="1" fill="currentColor"/>
      <path d="M10 6L12 8L14 6" stroke="currentColor" stroke-width="1.5" stroke-linecap="round" stroke-linejoin="round"/>
    </g>
  </g>
  
  <!-- Texto JENAFREE -->
  <text x="70" y="25" font-family="Poppins, sans-serif" font-size="18" font-weight="bold" fill="currentColor">JENAFREE</text>
  
  <!-- Texto LABS -->
  <text x="70" y="45" font-family="Poppins, sans-serif" font-size="14" font-weight="bold" fill="currentColor">LABS</text>
</svg>

